<?xml version="1.0" standalone="no"?>
<!DOCTYPE svg PUBLIC "-//W3C//DTD SVG 20010904//EN"
 "http://www.w3.org/TR/2001/REC-SVG-20010904/DTD/svg10.dtd">
<svg version="1.0" xmlns="http://www.w3.org/2000/svg"
 width="700.000000pt" height="700.000000pt" viewBox="0 0 700.000000 700.000000"
 preserveAspectRatio="xMidYMid meet">
<metadata>
Created by potrace 1.14, written by Peter Selinger 2001-2017
</metadata>
<g transform="translate(0.000000,700.000000) scale(0.100000,-0.100000)"
fill="#000000" stroke="none">
<path d="M2627 5584 c-2 -2 -110 -5 -240 -6 l-238 -3 -5 -25 c-3 -14 -8 -33
-11 -42 -2 -10 -6 -30 -9 -45 -3 -16 -11 -53 -19 -83 -8 -30 -16 -66 -18 -80
-3 -14 -10 -43 -15 -65 -6 -22 -13 -51 -15 -65 -3 -14 -10 -43 -16 -65 -12
-45 -60 -256 -67 -295 -3 -14 -7 -33 -10 -42 -3 -9 -7 -25 -9 -35 -2 -10 -18
-79 -35 -153 -17 -74 -42 -184 -56 -245 -14 -60 -27 -119 -30 -130 -3 -11 -7
-30 -10 -42 -2 -12 -27 -120 -55 -240 -48 -210 -86 -376 -95 -418 -2 -11 -15
-67 -28 -125 -13 -58 -23 -107 -21 -111 2 -3 69 -5 149 -5 81 1 146 -3 146 -7
0 -5 -12 -59 -26 -120 -14 -62 -28 -122 -30 -134 -2 -12 -16 -71 -30 -130 -14
-60 -28 -119 -30 -133 -3 -14 -9 -38 -14 -55 -5 -16 -14 -57 -21 -90 -7 -33
-14 -64 -15 -70 -13 -58 -116 -504 -119 -515 -2 -8 -10 -44 -18 -80 -8 -36
-34 -146 -57 -245 -23 -99 -43 -188 -45 -197 -3 -15 12 -17 163 -20 249 -4
1470 -1 1522 5 25 2 88 8 140 11 52 4 109 9 125 11 35 4 100 12 170 21 130 15
435 104 580 169 185 83 370 189 500 287 159 121 339 290 446 418 30 36 56 67
59 70 17 17 97 129 149 209 105 161 201 351 267 531 13 36 24 65 24 65 0 0
-69 0 -154 -1 l-153 -1 22 74 c13 40 23 76 23 78 0 5 14 83 17 95 13 56 18 82
31 159 3 18 8 43 10 55 18 88 24 391 11 516 -51 500 -303 902 -702 1125 -112
62 -295 125 -435 149 -99 17 -150 24 -210 31 -140 15 -191 19 -355 31 -83 7
-1132 13 -1138 8z m938 -1045 c457 -78 599 -390 455 -1004 -6 -27 -14 -60 -16
-73 -3 -13 -16 -58 -29 -100 -14 -42 -25 -82 -25 -88 0 -8 41 -11 129 -10 72
1 139 -1 150 -4 20 -5 20 -7 6 -34 -8 -15 -15 -32 -15 -37 0 -5 -16 -44 -36
-86 -185 -401 -480 -587 -964 -607 l-87 -4 9 36 c5 21 10 44 12 52 2 8 30 125
61 260 51 218 73 317 91 400 l6 25 -151 -1 c-83 0 -151 3 -151 8 0 4 13 66 30
136 16 70 34 147 40 172 5 25 23 101 39 170 16 69 32 136 35 150 5 25 54 241
61 270 2 8 14 58 26 110 12 52 28 122 35 155 8 33 17 75 20 92 l7 33 101 -5
c55 -3 128 -10 161 -16z"/>
</g>
</svg>
