<svg
    xmlns="http://www.w3.org/2000/svg"
    xmlns:xlink="http://www.w3.org/1999/xlink"
    width="304"
    height="304"
    viewBox="0 0 135 135"
    zoomAndPan="magnify"
    preserveAspectRatio="xMidYMid meet"
    version="1.0"
>
    <defs id="SvgjsDefs2035"></defs>
    <g
        id="SvgjsG2037"
        featurekey="monogramFeature-0"
        transform="matrix(1.8108150581197555,0,0,1.8108150581197555,25,-2)"
        fill="#145bcd">
        <path
            d="M43.184 40.897999999999996 l3.2813 0 c-3.1934 9.4336 -11.338 16.846 -21.24 18.574 c-7.2949 1.0254 -15.527 0.52734 -22.939 0.52734 l4.3945 -19.102 l-3.252 0 l5.6543 -24.609 c5.8594 0 20.684 -0.9082 26.543 1.582 c8.1152 3.4863 10.137 12.363 8.2617 20.273 c-0.14648 0.9375 -0.38086 1.875 -0.70313 2.7539 z M21.387 27.1 l-3.1641 13.799 l3.252 0 l-1.9043 8.2031 c6.3574 0 9.9023 -2.4023 11.865 -8.2031 l-3.252 0 c0.32227 -0.79102 0.55664 -1.7285 0.82031 -2.8418 c1.8164 -7.5879 -0.41016 -10.957 -7.6172 -10.957 z"
        ></path>
    </g>
</svg>